<svg xmlns="http://www.w3.org/2000/svg" viewBox="0 0 32 32">
  <defs>
    <linearGradient id="g1" x1="0%" y1="0%" x2="100%" y2="100%">
      <stop offset="0%" stop-color="#00D0FF"/>
      <stop offset="100%" stop-color="#1A6FFF"/>
    </linearGradient>
    <linearGradient id="g2" x1="0%" y1="0%" x2="100%" y2="100%">
      <stop offset="0%" stop-color="#FF6A00"/>
      <stop offset="100%" stop-color="#FFB300"/>
    </linearGradient>
  </defs>
  <rect width="32" height="32" rx="7" fill="#060D1A"/>
  <path d="M16 3.5 L25.5 8 L25.5 17 C25.5 22.5 21.5 27.2 16 29 C10.5 27.2 6.5 22.5 6.5 17 L6.5 8 Z" fill="url(#g1)" opacity="0.15"/>
  <path d="M16 5 L24 9 L24 17.2 C24 22 20.6 26 16 27.5 C11.4 26 8 22 8 17.2 L8 9 Z" fill="none" stroke="url(#g1)" stroke-width="1.4"/>
  <text x="16" y="21.5" text-anchor="middle" font-family="'Arial Black',sans-serif" font-weight="900" font-size="11.5" fill="url(#g2)">H</text>
  <rect x="22" y="4" width="8" height="8" rx="4" fill="url(#g2)"/>
  <path d="M23.5 8 L25 9.5 L27.2 6.5" fill="none" stroke="#fff" stroke-width="1.3" stroke-linecap="round" stroke-linejoin="round"/>
</svg>
